<svg data-v-423bf9ae="" xmlns="http://www.w3.org/2000/svg" viewBox="0 0 388.6863860946386 60" class="font"><!----><!----><!----><g data-v-423bf9ae="" id="d1a6d8b7-f1b3-4860-8379-5fc824a8b065" fill="black" transform="matrix(5.431204293266883,0,0,5.431204293266883,5.270527707435605,-27.11652088274252)"><path d="M1.39 5.84L1.39 5.84L-0.95 13.93Q-1.02 14.29-0.85 14.56Q-0.69 14.83-0.34 15.02L-0.34 15.02Q0.06 15.27 0.36 15.44Q0.67 15.60 1.02 15.75L1.02 15.75Q1.16 15.82 1.34 15.88Q1.51 15.93 1.74 15.96Q1.96 15.99 2.26 15.98Q2.56 15.97 2.98 15.90L2.98 15.90Q4.21 15.75 5.57 15.57Q6.92 15.39 8.22 15.22L8.22 15.22Q8.75 15.15 8.85 15.04Q8.95 14.94 8.83 14.66L8.83 14.66Q8.68 14.41 8.53 14.17Q8.39 13.93 8.13 13.66L8.13 13.66Q7.92 13.43 7.60 13.34Q7.28 13.26 6.75 13.29L6.75 13.29Q5.75 13.33 4.89 13.39Q4.03 13.45 3.11 13.57L3.11 13.57Q3.28 13.20 3.42 12.82Q3.57 12.43 3.72 12.03L3.72 12.03Q4.86 11.87 6.07 11.74Q7.28 11.61 8.47 11.47L8.47 11.47Q9.00 11.40 9.12 11.30Q9.24 11.20 9.09 10.91L9.09 10.91Q8.97 10.65 8.83 10.42Q8.69 10.18 8.44 9.93L8.44 9.93Q8.23 9.69 7.92 9.61Q7.62 9.53 7.08 9.55L7.08 9.55Q6.45 9.56 5.89 9.58Q5.33 9.60 4.75 9.66L4.75 9.66Q5.04 9.03 5.29 8.46Q5.53 7.88 5.80 7.36L5.80 7.36Q7.10 7.25 8.27 7.17Q9.44 7.08 10.53 7.01L10.53 7.01Q11.06 6.97 11.20 6.87Q11.34 6.76 11.24 6.47L11.24 6.47Q11.13 6.22 11.02 6.01Q10.91 5.80 10.65 5.53L10.65 5.53Q10.35 5.04 9.34 5.05L9.34 5.05Q8.26 5.08 7.18 5.16Q6.10 5.24 5.08 5.35Q4.05 5.46 3.11 5.59Q2.17 5.71 1.39 5.84ZM15.68 12.59L15.68 12.59Q16.20 13.01 16.84 13.43Q17.47 13.86 18.12 14.25Q18.76 14.64 19.37 14.98Q19.98 15.32 20.45 15.54L20.45 15.54Q21.17 15.83 21.71 15.87Q22.26 15.90 22.69 15.82L22.69 15.82Q23.07 15.78 23.32 15.74Q23.58 15.71 23.93 15.51L23.93 15.51Q24.23 15.36 24.27 15.22Q24.30 15.08 23.87 14.84L23.87 14.84Q23.35 14.56 22.76 14.20Q22.18 13.83 21.58 13.45Q20.99 13.06 20.43 12.67Q19.87 12.28 19.40 11.94L19.40 11.94Q21.57 11.31 23.07 10.59Q24.57 9.87 25.16 9.03L25.16 9.03Q25.37 8.76 25.38 8.45Q25.38 8.13 25.23 7.74L25.23 7.74Q24.88 7.03 24.32 6.54Q23.76 6.05 23.10 5.64L23.10 5.64Q22.29 5.18 21.23 5.08Q20.17 4.97 19.01 5.10Q17.84 5.22 16.63 5.51Q15.41 5.80 14.29 6.10L14.29 6.10Q13.97 6.20 13.65 6.77Q13.33 7.34 13.03 8.16Q12.73 8.99 12.46 9.96Q12.19 10.93 11.98 11.85Q11.76 12.77 11.60 13.52Q11.44 14.28 11.34 14.67L11.34 14.67Q11.27 15.04 11.40 15.25Q11.52 15.47 11.89 15.62L11.89 15.62Q12.25 15.76 12.68 15.82Q13.12 15.88 13.65 15.97L13.65 15.97Q14.14 16.04 14.32 15.97Q14.50 15.90 14.60 15.68L14.60 15.68Q14.85 14.92 15.11 14.16Q15.37 13.40 15.68 12.59ZM17.84 7.60L17.84 7.60Q18.55 7.39 19.19 7.31Q19.82 7.22 20.36 7.22L20.36 7.22Q21.45 7.22 21.69 7.55L21.69 7.55Q21.81 7.74 21.52 8.11Q21.22 8.47 20.56 8.88Q19.89 9.28 18.89 9.69Q17.88 10.09 16.58 10.37L16.58 10.37Q16.94 9.58 17.23 8.88Q17.53 8.19 17.84 7.60ZM31.72 5.88L31.72 5.88Q31.23 5.68 30.59 5.51Q29.95 5.33 29.39 5.25L29.39 5.25Q28.83 5.15 28.55 5.22Q28.28 5.29 28.13 5.60L28.13 5.60Q27.90 6.12 27.65 6.86Q27.40 7.60 27.13 8.44Q26.87 9.28 26.61 10.18Q26.36 11.07 26.15 11.90Q25.94 12.73 25.78 13.43Q25.62 14.14 25.56 14.62L25.56 14.62Q25.49 14.98 25.63 15.18Q25.77 15.39 26.24 15.54L26.24 15.54Q26.68 15.69 27.17 15.79Q27.65 15.89 28.18 15.99L28.18 15.99Q28.71 16.07 28.90 16.00Q29.08 15.93 29.16 15.69L29.16 15.69Q29.34 15.08 29.58 14.32Q29.82 13.55 30.09 12.73Q30.37 11.90 30.66 11.05Q30.95 10.19 31.25 9.40Q31.54 8.61 31.82 7.91Q32.10 7.21 32.34 6.69L32.34 6.69Q32.40 6.55 32.41 6.44Q32.42 6.33 32.36 6.24Q32.30 6.15 32.14 6.06Q31.99 5.98 31.72 5.88ZM46.40 6.48L46.40 6.48Q46.51 6.20 46.40 6.04Q46.30 5.88 45.81 5.68L45.81 5.68Q45.28 5.49 44.72 5.33Q44.16 5.17 43.62 5.08L43.62 5.08Q43.06 4.98 42.78 5.03Q42.49 5.08 42.32 5.43L42.32 5.43Q41.96 6.36 41.57 7.56Q41.17 8.76 40.73 10.04L40.73 10.04Q40.01 10.07 39.23 10.11Q38.46 10.15 37.65 10.21L37.65 10.21Q38.04 9.16 38.38 8.25Q38.72 7.34 39.03 6.69L39.03 6.69Q39.14 6.40 39.05 6.24Q38.95 6.08 38.42 5.88L38.42 5.88Q37.93 5.68 37.27 5.52Q36.62 5.35 36.08 5.25L36.08 5.25Q35.55 5.14 35.27 5.19Q35 5.25 34.85 5.60L34.85 5.60Q34.57 6.54 34.27 7.72Q33.96 8.90 33.64 10.13Q33.32 11.35 32.97 12.52Q32.62 13.69 32.26 14.62L32.26 14.62Q32.09 14.98 32.28 15.18Q32.47 15.39 32.93 15.54L32.93 15.54Q33.29 15.69 33.84 15.79Q34.38 15.89 34.87 15.99L34.87 15.99Q35.14 16.03 35.31 16.04Q35.48 16.04 35.58 16.01Q35.69 15.97 35.75 15.90Q35.81 15.82 35.85 15.69L35.85 15.69Q36.06 15.02 36.30 14.20Q36.53 13.37 36.88 12.45L36.88 12.45Q37.69 12.36 38.49 12.29Q39.30 12.22 40.11 12.14L40.11 12.14Q39.90 12.89 39.75 13.53Q39.59 14.17 39.52 14.66L39.52 14.66Q39.42 14.91 39.51 15.09Q39.59 15.27 39.81 15.41Q40.03 15.54 40.36 15.64Q40.70 15.74 41.12 15.82L41.12 15.82Q41.54 15.89 41.90 15.95Q42.27 16.02 42.52 16.03Q42.78 16.04 42.94 15.97Q43.09 15.90 43.09 15.71L43.09 15.71Q43.43 14.57 43.85 13.31Q44.27 12.05 44.71 10.82Q45.15 9.59 45.58 8.47Q46.02 7.35 46.40 6.48ZM54.98 15.20L54.98 15.20Q55.29 15.16 55.45 15.12Q55.61 15.08 55.66 15.02Q55.71 14.97 55.68 14.88Q55.65 14.78 55.57 14.63L55.57 14.63Q55.47 14.39 55.31 14.14Q55.15 13.89 54.88 13.65L54.88 13.65Q54.63 13.40 54.33 13.32Q54.03 13.24 53.49 13.27L53.49 13.27Q52.57 13.31 51.76 13.37Q50.96 13.43 50.05 13.52L50.05 13.52Q50.36 12.63 50.72 11.68Q51.09 10.72 51.46 9.80Q51.84 8.88 52.21 8.02Q52.58 7.17 52.92 6.48L52.92 6.48Q53.07 6.20 52.96 6.04Q52.85 5.88 52.36 5.68Q51.87 5.49 51.23 5.33Q50.58 5.17 50.02 5.08L50.02 5.08Q49.49 4.98 49.20 5.05Q48.92 5.11 48.72 5.42L48.72 5.42Q48.44 5.99 48.15 6.70Q47.85 7.41 47.56 8.19Q47.28 8.97 47.00 9.79Q46.73 10.60 46.50 11.36Q46.27 12.12 46.10 12.80Q45.93 13.48 45.84 14L45.84 14Q45.74 14.34 45.90 14.58Q46.06 14.83 46.41 15.02L46.41 15.02Q46.87 15.27 47.14 15.44Q47.42 15.60 47.77 15.75L47.77 15.75Q47.91 15.82 48.07 15.88Q48.23 15.93 48.45 15.97Q48.66 16.00 48.98 15.99Q49.29 15.97 49.74 15.89L49.74 15.89Q50.97 15.72 52.32 15.55Q53.68 15.37 54.98 15.20ZM66.53 13.17L66.53 13.17Q66.67 14.25 66.86 15.08L66.86 15.08Q66.96 15.47 67.16 15.62Q67.37 15.78 67.86 15.88L67.86 15.88Q68.35 15.99 68.80 16.01Q69.26 16.03 69.79 16.03L69.79 16.03Q70.32 16.03 70.47 15.93Q70.62 15.83 70.59 15.58L70.59 15.58Q70.46 14.41 70.36 13.11Q70.25 11.82 70.18 10.57Q70.11 9.32 70.09 8.21Q70.07 7.10 70.10 6.30L70.10 6.30Q70.11 5.98 69.94 5.78Q69.78 5.57 69.20 5.46L69.20 5.46Q68.80 5.39 68.39 5.32Q67.98 5.25 67.51 5.19Q67.03 5.12 66.46 5.08Q65.90 5.03 65.17 5.00L65.17 5.00Q64.34 4.96 63.91 5.14Q63.48 5.32 63.20 5.61L63.20 5.61Q62.68 6.17 62.10 6.87Q61.52 7.57 60.91 8.35Q60.30 9.13 59.69 9.94Q59.08 10.75 58.52 11.54Q57.96 12.33 57.47 13.07Q56.98 13.80 56.62 14.42L56.62 14.42Q56.46 14.71 56.45 14.89Q56.45 15.06 56.54 15.18Q56.63 15.29 56.81 15.37Q56.99 15.44 57.23 15.55L57.23 15.55Q57.53 15.67 57.85 15.76Q58.17 15.85 58.42 15.92L58.42 15.92Q58.88 16.03 59.11 15.99Q59.35 15.95 59.54 15.71L59.54 15.71Q59.84 15.26 60.16 14.79Q60.48 14.32 60.93 13.79L60.93 13.79Q61.49 13.69 62.15 13.61Q62.82 13.52 63.55 13.45Q64.27 13.38 65.03 13.31Q65.79 13.24 66.53 13.17ZM62.73 11.35L62.73 11.35Q63.64 10.16 64.51 9.11Q65.38 8.05 66.09 7.21L66.09 7.21Q66.09 8.13 66.15 9.11Q66.21 10.09 66.28 11.10L66.28 11.10Q64.50 11.19 62.73 11.35Z"></path></g><!----><!----></svg>